<svg xmlns="http://www.w3.org/2000/svg" viewBox="0 0 200 195">
  <!-- trunk -->
  <line x1="100" y1="185" x2="100" y2="120" stroke="#1B2B4B" stroke-width="6" stroke-linecap="round"/>
  <!-- level 1 -->
  <line x1="100" y1="120" x2="68"  y2="78"  stroke="#1B2B4B" stroke-width="4"   stroke-linecap="round"/>
  <line x1="100" y1="120" x2="132" y2="78"  stroke="#1B2B4B" stroke-width="4"   stroke-linecap="round"/>
  <!-- level 2 -->
  <line x1="68"  y1="78"  x2="44"  y2="50"  stroke="#1B2B4B" stroke-width="2.5" stroke-linecap="round"/>
  <line x1="68"  y1="78"  x2="76"  y2="44"  stroke="#1B2B4B" stroke-width="2.5" stroke-linecap="round"/>
  <line x1="132" y1="78"  x2="124" y2="44"  stroke="#1B2B4B" stroke-width="2.5" stroke-linecap="round"/>
  <line x1="132" y1="78"  x2="156" y2="50"  stroke="#1B2B4B" stroke-width="2.5" stroke-linecap="round"/>
  <!-- level 3 -->
  <line x1="44"  y1="50"  x2="26"  y2="32"  stroke="#1B2B4B" stroke-width="1.5" stroke-linecap="round"/>
  <line x1="44"  y1="50"  x2="50"  y2="26"  stroke="#1B2B4B" stroke-width="1.5" stroke-linecap="round"/>
  <line x1="76"  y1="44"  x2="63"  y2="22"  stroke="#1B2B4B" stroke-width="1.5" stroke-linecap="round"/>
  <line x1="76"  y1="44"  x2="86"  y2="20"  stroke="#1B2B4B" stroke-width="1.5" stroke-linecap="round"/>
  <line x1="124" y1="44"  x2="114" y2="20"  stroke="#1B2B4B" stroke-width="1.5" stroke-linecap="round"/>
  <line x1="124" y1="44"  x2="137" y2="22"  stroke="#1B2B4B" stroke-width="1.5" stroke-linecap="round"/>
  <line x1="156" y1="50"  x2="150" y2="26"  stroke="#1B2B4B" stroke-width="1.5" stroke-linecap="round"/>
  <line x1="156" y1="50"  x2="174" y2="32"  stroke="#1B2B4B" stroke-width="1.5" stroke-linecap="round"/>
</svg>
